<svg width="51" height="52" viewBox="0 0 51 52" fill="none" xmlns="http://www.w3.org/2000/svg">
<path fill-rule="evenodd" clip-rule="evenodd" d="M29.2782 50.9989H21.6118C20.9895 50.8067 20.7062 50.3889 20.6562 49.7345C20.6058 49.0693 20.5362 48.4058 20.4665 47.7424L20.4665 47.7422L20.4665 47.7421C20.4011 47.119 20.3357 46.4959 20.2862 45.8712C20.1862 44.6001 19.7218 43.5624 18.4963 43.0368C17.2952 42.5213 16.2019 42.7535 15.2041 43.6091C14.433 44.2697 13.6404 44.9058 12.8478 45.542L12.8476 45.5422C12.5724 45.763 12.2973 45.9838 12.0231 46.2057C11.2998 46.7923 10.9031 46.7734 10.2498 46.1212C8.63871 44.5135 7.02874 42.9046 5.41989 41.2947C4.76435 40.6391 4.73435 40.178 5.29989 39.4636C5.59788 39.0868 5.89999 38.7131 6.20206 38.3395L6.20212 38.3394C6.85401 37.5331 7.50571 36.727 8.11539 35.8903C9.38758 34.1459 8.34316 31.6538 6.21432 31.3193C5.00023 31.1288 3.77887 30.986 2.55851 30.8433C2.34821 30.8187 2.13794 30.7942 1.92775 30.7693C1.34109 30.7004 0.78666 30.6082 0.5 29.9994V21.8884C0.742217 21.4573 1.08776 21.224 1.60331 21.174C2.3016 21.1058 2.99857 21.0232 3.69551 20.9406L3.69575 20.9405L3.69584 20.9405C4.43043 20.8534 5.16498 20.7664 5.90099 20.6962C7.04763 20.5873 7.92428 20.0974 8.37094 19.0163C8.84315 17.8741 8.74871 16.7819 7.93428 15.7908C7.31984 15.0441 6.71434 14.2901 6.10873 13.536L6.10846 13.5356C5.83368 13.1935 5.55889 12.8513 5.28323 12.5097C4.70435 11.7909 4.72435 11.402 5.38656 10.7387C7.00763 9.11426 8.63093 7.49208 10.2553 5.871C10.8509 5.27657 11.3309 5.24879 12.0042 5.77767C12.4245 6.10756 12.8419 6.44131 13.2592 6.77503L13.2593 6.77506C14.0269 7.38886 14.7944 8.00258 15.5797 8.59205C17.2918 9.87869 19.8351 8.87094 20.1829 6.75765C20.3017 6.03453 20.3769 5.3042 20.4521 4.57353C20.5056 4.05354 20.5591 3.53337 20.6284 3.01551C20.6478 2.87096 20.6578 2.72228 20.6679 2.57318C20.7082 1.97621 20.749 1.37251 21.3873 1H29.6094C29.6781 1.10771 29.7607 1.21331 29.8433 1.31891C30.0223 1.54773 30.2013 1.77652 30.2393 2.02664C30.4134 3.15309 30.5274 4.28831 30.6415 5.42341C30.6679 5.68673 30.6944 5.95003 30.7215 6.21322C30.8527 7.48541 31.4015 8.49094 32.6115 8.9976C33.8048 9.49648 34.8826 9.18426 35.8559 8.37206C36.5438 7.79858 37.242 7.23698 37.9403 6.67528L37.9408 6.67491C38.2665 6.41292 38.5922 6.15091 38.9169 5.88767C39.7202 5.23546 40.0713 5.25435 40.818 5.99989C42.0748 7.25494 43.3302 8.51142 44.5854 9.76761L44.5882 9.77044L45.5301 10.7131C46.2612 11.4453 46.2812 11.8653 45.6323 12.672C45.3476 13.0257 45.059 13.3765 44.7703 13.7273L44.77 13.7277C44.1293 14.5063 43.4887 15.2849 42.8913 16.0952C41.6069 17.8352 42.6424 20.3485 44.7701 20.6751C46.249 20.9018 47.7389 21.0696 49.2289 21.2073C49.8211 21.2618 50.2489 21.454 50.4978 21.9995V29.9994C50.2856 30.4793 49.98 30.8238 49.4078 30.8771C48.7572 30.9381 48.107 31.0068 47.4568 31.0756C46.6737 31.1584 45.8906 31.2412 45.1068 31.3104C43.8913 31.4182 42.9935 31.9882 42.5191 33.1048C42.0369 34.2404 42.2369 35.3015 43.0379 36.2581C43.7044 37.0533 44.3571 37.8591 45.0102 38.6653L45.0105 38.6657C45.2305 38.9373 45.4506 39.209 45.6712 39.4803C46.3023 40.2558 46.2856 40.6336 45.5823 41.338C44.0013 42.9224 42.418 44.5046 40.8347 46.0868C40.0902 46.8301 39.6936 46.849 38.8847 46.189C38.5451 45.9119 38.2069 45.6332 37.8687 45.3546L37.8684 45.3543L37.8683 45.3542C37.0934 44.7158 36.3185 44.0774 35.5281 43.4579C33.7781 42.0869 31.1804 43.0913 30.8204 45.2912C30.5904 46.6934 30.4304 48.1078 30.2716 49.5211C30.1949 50.2056 30.0438 50.7989 29.276 51L29.2782 50.9989ZM11.2964 44.1457C11.5942 43.906 11.8937 43.6677 12.1934 43.4292C12.8465 42.9095 13.5007 42.389 14.1397 41.8513C17.3941 39.1136 21.6473 41.6058 22.1629 44.7824C22.3554 45.967 22.4736 47.1636 22.5917 48.3592L22.5917 48.3593L22.5973 48.4156C22.6328 48.7823 22.7317 48.9289 23.1251 48.9245C24.7172 48.9045 26.3094 48.9056 27.9016 48.9245C28.2749 48.9289 28.3683 48.7789 28.396 48.4412C28.4838 47.3723 28.596 46.3057 28.7105 45.239C28.9227 43.2479 29.9949 41.8713 31.8215 41.1347C33.6659 40.3913 35.407 40.6291 36.9581 41.9402C37.6163 42.4963 38.2786 43.0488 38.9145 43.5792L38.9159 43.5804C39.1511 43.7766 39.3827 43.9698 39.6091 44.159L41.0258 42.7544L41.027 42.7532C41.891 41.8966 42.7519 41.0431 43.6235 40.178C43.391 39.8889 43.1576 39.595 42.9224 39.2986C42.4234 38.6701 41.9161 38.0311 41.3913 37.4059C38.7436 34.2537 40.9702 29.9738 44.1357 29.3383C45.1256 29.139 46.1401 29.0523 47.1517 28.9657C47.3754 28.9466 47.5991 28.9275 47.8223 28.9072C48.2023 28.8727 48.3267 28.7594 48.3223 28.3772C48.3104 27.2913 48.3114 26.2049 48.3124 25.1187C48.3129 24.5756 48.3134 24.0325 48.3123 23.4895C48.3123 23.4071 48.2966 23.3242 48.2803 23.2378L48.2803 23.2377L48.2802 23.2375C48.2724 23.1958 48.2643 23.1532 48.2578 23.1095C47.887 23.0729 47.5191 23.0347 47.1533 22.9967C46.3649 22.9149 45.5858 22.834 44.8057 22.7717C41.8169 22.5351 39.7091 19.7785 40.258 16.8441C40.468 15.7219 41.0758 14.843 41.7869 14.0019C42.2285 13.4789 42.6591 12.9458 43.0732 12.4332C43.2467 12.2185 43.4173 12.0073 43.5846 11.802L43.297 11.5148L43.2931 11.511C42.0373 10.2572 40.8227 9.04463 39.588 7.81096C39.3234 8.0263 39.0556 8.24475 38.7854 8.46513C38.1843 8.95542 37.5714 9.45531 36.9559 9.95202C35.3459 11.2509 33.5526 11.572 31.6593 10.7398C29.7505 9.90091 28.7627 8.35873 28.6072 6.26988C28.5519 5.5343 28.4683 4.80027 28.3845 4.06392L28.3844 4.06345C28.3452 3.71885 28.3059 3.37374 28.2694 3.02773H22.6706C22.6414 3.28908 22.6116 3.54895 22.5819 3.8078C22.5122 4.415 22.4432 5.01662 22.384 5.61879C22.264 6.83876 22.1195 8.04318 21.3551 9.07649C19.714 11.2931 16.4363 11.7909 14.233 10.1176C13.529 9.58276 12.8442 9.0216 12.1931 8.48795L12.193 8.48791L12.193 8.48786C11.908 8.25435 11.6295 8.0261 11.3586 7.80763C9.99423 9.16426 8.67648 10.4753 7.34985 11.7953C7.5909 12.0923 7.83924 12.3917 8.09035 12.6944C8.64715 13.3655 9.21753 14.053 9.75202 14.7675C11.8464 17.5696 10.4009 21.7184 7.02541 22.6084C6.56674 22.7292 6.08881 22.78 5.61261 22.8306C5.46243 22.8466 5.31241 22.8625 5.16323 22.8806C4.5409 22.9557 3.91745 23.0228 3.29287 23.0901L3.29155 23.0903C3.03787 23.1176 2.784 23.1449 2.52995 23.1728V28.8027C2.58066 28.8125 2.62938 28.823 2.67682 28.8331L2.67701 28.8332L2.67705 28.8332C2.78025 28.8553 2.87735 28.8762 2.9755 28.886C3.35618 28.9257 3.73715 28.9625 4.1181 28.9993L4.11826 28.9994C4.80464 29.0657 5.49095 29.132 6.17543 29.2149C8.11539 29.4494 9.53535 30.4438 10.2831 32.256C11.0375 34.0837 10.7442 35.807 9.52647 37.3636C9.01248 38.0206 8.49096 38.6717 7.97837 39.3116L7.97805 39.312C7.75389 39.5918 7.53144 39.8695 7.31207 40.1447C8.64168 41.4787 9.94463 42.7872 11.2964 44.1457ZM25.5004 15.4442C19.6709 15.4442 14.9451 20.17 14.9451 25.9995C14.9451 28.6498 15.9219 31.0719 17.5351 32.9256C18.3658 30.9807 19.7804 29.5714 21.7323 28.6446C21.8746 28.5771 22.0196 28.5154 22.1707 28.4511C22.2443 28.4198 22.3193 28.3878 22.3962 28.3543C22.3541 28.3207 22.3148 28.2899 22.2776 28.2608C22.207 28.2055 22.1437 28.156 22.083 28.1036C20.7404 26.9395 20.1071 25.4728 20.3982 23.7085C20.7202 21.7552 21.9242 20.4987 23.7649 19.8504C24.0462 19.7515 24.3425 19.6953 24.6387 19.639C24.7765 19.6128 24.9144 19.5866 25.0507 19.5562H25.8399C25.8565 19.561 25.8731 19.5668 25.8897 19.5725C25.9267 19.5854 25.9639 19.5982 26.0017 19.6016C26.5793 19.6531 27.1272 19.8108 27.6545 20.0477C31.0237 21.5599 31.5756 25.8932 28.6922 28.197C28.6491 28.2317 28.6072 28.268 28.5588 28.3099C28.5402 28.3259 28.5208 28.3428 28.4999 28.3607C28.5404 28.3777 28.5783 28.3935 28.6143 28.4085C28.6977 28.4432 28.7709 28.4737 28.8436 28.5051C30.9805 29.4264 32.528 30.9023 33.39 33.0118C35.0483 31.1473 36.0557 28.6911 36.0557 25.9995C36.0557 20.17 31.33 15.4442 25.5004 15.4442ZM32.2265 34.1346C32.2144 34.0727 32.1974 34.0088 32.1754 33.9431C31.8859 33.0802 31.4484 32.2984 30.819 31.6447C28.7702 29.5174 26.2774 28.8434 23.4566 29.593C21.106 30.2174 19.4757 31.7146 18.6828 34.058C20.522 35.6156 22.9016 36.5548 25.5004 36.5548C28.0564 36.5548 30.4002 35.6463 32.2265 34.1346ZM12.9451 25.9995C12.9451 19.0654 18.5663 13.4442 25.5004 13.4442C32.4345 13.4442 38.0557 19.0654 38.0557 25.9995C38.0557 32.9336 32.4345 38.5548 25.5004 38.5548C18.5663 38.5548 12.9451 32.9336 12.9451 25.9995ZM25.8586 27.8052C25.723 27.8284 25.5874 27.8516 25.4532 27.8791L25.4527 27.8796C24.2552 27.8143 23.2613 27.3836 22.5156 26.45C21.4472 25.1128 21.5908 23.2476 22.8337 22.0687C24.2779 20.6994 26.5995 20.6945 28.0456 22.0578C29.8888 23.795 29.179 26.7932 26.7193 27.613C26.4419 27.7055 26.1502 27.7554 25.8586 27.8052Z" fill="#2166B1"/>
<path d="M21.6118 50.9989L21.538 51.2377L21.574 51.2489H21.6118V50.9989ZM29.2782 50.9989L29.3903 51.2224L29.2782 50.7489V50.9989ZM20.6562 49.7345L20.4069 49.7534L20.4069 49.7535L20.6562 49.7345ZM20.4665 47.7424L20.2176 47.7657L20.2179 47.7685L20.4665 47.7424ZM20.4665 47.7422L20.7154 47.7189L20.7153 47.7173L20.4665 47.7422ZM20.4665 47.7421L20.7153 47.7173L20.7152 47.716L20.4665 47.7421ZM20.2862 45.8712L20.037 45.8908L20.037 45.891L20.2862 45.8712ZM18.4963 43.0368L18.3977 43.2666L18.3977 43.2666L18.4963 43.0368ZM15.2041 43.6091L15.3668 43.7989L15.3668 43.7988L15.2041 43.6091ZM12.8478 45.542L12.6913 45.347L12.689 45.3489L12.8478 45.542ZM12.8476 45.5422L13.0041 45.7372L13.0063 45.7353L12.8476 45.5422ZM12.0231 46.2057L11.8658 46.0113L11.8656 46.0115L12.0231 46.2057ZM10.2498 46.1212L10.4264 45.9443L10.4264 45.9443L10.2498 46.1212ZM5.41989 41.2947L5.59673 41.1179L5.59667 41.1179L5.41989 41.2947ZM5.29989 39.4636L5.49591 39.6188L5.49598 39.6187L5.29989 39.4636ZM6.20206 38.3395L6.01377 38.1747L6.00765 38.1823L6.20206 38.3395ZM6.20212 38.3394L6.3904 38.5042L6.39653 38.4966L6.20212 38.3394ZM8.11539 35.8903L7.9134 35.743L7.91334 35.7431L8.11539 35.8903ZM6.21432 31.3193L6.25312 31.0724L6.25307 31.0723L6.21432 31.3193ZM2.55851 30.8433L2.58755 30.595H2.58755L2.55851 30.8433ZM1.92775 30.7693L1.95707 30.5211L1.9569 30.521L1.92775 30.7693ZM0.5 29.9994H0.25V30.0553L0.273814 30.1058L0.5 29.9994ZM0.5 21.8884L0.282046 21.766L0.25 21.823V21.8884H0.5ZM1.60331 21.174L1.62744 21.4228L1.62759 21.4228L1.60331 21.174ZM3.69551 20.9406L3.72495 21.1888L3.72587 21.1887L3.69551 20.9406ZM3.69575 20.9405L3.66675 20.6922L3.66539 20.6924L3.69575 20.9405ZM3.69584 20.9405L3.72484 21.1889L3.72528 21.1888L3.69584 20.9405ZM5.90099 20.6962L5.87736 20.4473L5.87728 20.4474L5.90099 20.6962ZM8.37094 19.0163L8.1399 18.9208L8.13988 18.9208L8.37094 19.0163ZM7.93428 15.7908L8.12743 15.6321L8.12732 15.6319L7.93428 15.7908ZM6.10873 13.536L5.91351 13.6922L5.91381 13.6925L6.10873 13.536ZM6.10846 13.5356L6.30368 13.3795L6.30338 13.3791L6.10846 13.5356ZM5.28323 12.5097L5.08851 12.6665L5.08869 12.6668L5.28323 12.5097ZM5.38656 10.7387L5.56348 10.9153L5.56352 10.9153L5.38656 10.7387ZM10.2553 5.871L10.4319 6.04796L10.432 6.04794L10.2553 5.871ZM12.0042 5.77767L11.8498 5.97427L11.8498 5.97433L12.0042 5.77767ZM13.2592 6.77503L13.4163 6.58054L13.4153 6.57977L13.2592 6.77503ZM13.2593 6.77506L13.1022 6.96955L13.1031 6.97031L13.2593 6.77506ZM15.5797 8.59205L15.7299 8.39219L15.7298 8.39212L15.5797 8.59205ZM20.1829 6.75765L20.4296 6.79824L20.4296 6.79817L20.1829 6.75765ZM20.4521 4.57353L20.7008 4.59913V4.59913L20.4521 4.57353ZM20.6284 3.01551L20.8762 3.04867L20.8762 3.04863L20.6284 3.01551ZM20.6679 2.57318L20.9173 2.59003V2.59003L20.6679 2.57318ZM21.3873 1V0.75H21.3197L21.2613 0.784077L21.3873 1ZM29.6094 1L29.8201 0.865471L29.7464 0.75H29.6094V1ZM29.8433 1.31891L29.6464 1.47294V1.47294L29.8433 1.31891ZM30.2393 2.02664L29.9922 2.06421L29.9923 2.06482L30.2393 2.02664ZM30.6415 5.42341L30.8902 5.39843V5.39843L30.6415 5.42341ZM30.7215 6.21322L30.9702 6.18759L30.9702 6.18752L30.7215 6.21322ZM32.6115 8.9976L32.5149 9.2282L32.5151 9.22826L32.6115 8.9976ZM35.8559 8.37206L35.6958 8.18004L35.6957 8.18011L35.8559 8.37206ZM37.9403 6.67528L37.7846 6.47966L37.7836 6.48048L37.9403 6.67528ZM37.9408 6.67491L38.0964 6.87054L38.0974 6.86971L37.9408 6.67491ZM38.9169 5.88767L39.0744 6.08187L39.0745 6.08176L38.9169 5.88767ZM40.818 5.99989L40.9946 5.82299L40.9946 5.82298L40.818 5.99989ZM44.5854 9.76761L44.4085 9.94431L44.4087 9.94447L44.5854 9.76761ZM44.5882 9.77044L44.765 9.59374L44.7649 9.59358L44.5882 9.77044ZM45.5301 10.7131L45.707 10.5365L45.707 10.5364L45.5301 10.7131ZM45.6323 12.672L45.8271 12.8287L45.8271 12.8287L45.6323 12.672ZM44.7703 13.7273L44.9633 13.8863L44.9634 13.8862L44.7703 13.7273ZM44.77 13.7277L44.577 13.5688L44.5769 13.5689L44.77 13.7277ZM42.8913 16.0952L43.0924 16.2437L43.0925 16.2436L42.8913 16.0952ZM44.7701 20.6751L44.7322 20.9222L44.7323 20.9222L44.7701 20.6751ZM49.2289 21.2073L49.2059 21.4563L49.206 21.4563L49.2289 21.2073ZM50.4978 21.9995H50.7478V21.9452L50.7252 21.8958L50.4978 21.9995ZM50.4978 29.9994L50.7264 30.1004L50.7478 30.0522V29.9994H50.4978ZM49.4078 30.8771L49.3846 30.6282L49.3845 30.6282L49.4078 30.8771ZM47.4568 31.0756L47.4831 31.3242L47.4568 31.0756ZM45.1068 31.3104L45.0848 31.0614L45.0847 31.0614L45.1068 31.3104ZM42.5191 33.1048L42.289 33.0071L42.289 33.0071L42.5191 33.1048ZM43.0379 36.2581L42.8463 36.4186L42.8463 36.4187L43.0379 36.2581ZM45.0102 38.6653L44.8159 38.8227L44.8167 38.8236L45.0102 38.6653ZM45.0105 38.6657L45.2048 38.5083L45.204 38.5074L45.0105 38.6657ZM45.6712 39.4803L45.4773 39.638L45.4773 39.6381L45.6712 39.4803ZM45.5823 41.338L45.4054 41.1614L45.4054 41.1614L45.5823 41.338ZM40.8347 46.0868L41.0113 46.2637L41.0114 46.2636L40.8347 46.0868ZM38.8847 46.189L38.7266 46.3827L38.7267 46.3827L38.8847 46.189ZM37.8687 45.3546L37.7086 45.5466L37.7097 45.5475L37.8687 45.3546ZM37.8684 45.3543L38.0284 45.1622L38.0245 45.1591L37.8684 45.3543ZM37.8683 45.3542L37.7093 45.5472L37.7121 45.5495L37.8683 45.3542ZM35.5281 43.4579L35.6823 43.2612L35.6823 43.2612L35.5281 43.4579ZM30.8204 45.2912L31.0671 45.3317L31.0672 45.3316L30.8204 45.2912ZM30.2716 49.5211L30.0231 49.4932L30.0231 49.4933L30.2716 49.5211ZM29.276 51L29.164 50.7765L29.3394 51.2418L29.276 51ZM12.1934 43.4292L12.0377 43.2336L12.1934 43.4292ZM11.2964 44.1457L11.1192 44.322L11.2779 44.4816L11.4532 44.3404L11.2964 44.1457ZM14.1397 41.8513L13.9788 41.66L13.9787 41.66L14.1397 41.8513ZM22.1629 44.7824L21.9161 44.8224L21.9161 44.8225L22.1629 44.7824ZM22.5917 48.3592L22.3428 48.3838L22.3436 48.3902L22.5917 48.3592ZM22.5917 48.3593L22.8406 48.3347L22.8398 48.3283L22.5917 48.3593ZM22.5973 48.4156L22.8461 48.3915L22.8461 48.391L22.5973 48.4156ZM23.1251 48.9245L23.1279 49.1745L23.1282 49.1745L23.1251 48.9245ZM27.9016 48.9245L27.9046 48.6745H27.9046L27.9016 48.9245ZM28.396 48.4412L28.6452 48.4617L28.6452 48.4616L28.396 48.4412ZM28.7105 45.239L28.9591 45.2657L28.9591 45.2655L28.7105 45.239ZM31.8215 41.1347L31.7281 40.9028L31.728 40.9028L31.8215 41.1347ZM36.9581 41.9402L36.7967 42.1311L36.7967 42.1312L36.9581 41.9402ZM38.9145 43.5792L38.7543 43.7712L38.7546 43.7714L38.9145 43.5792ZM38.9159 43.5804L39.076 43.3884L39.0757 43.3882L38.9159 43.5804ZM39.6091 44.159L39.4488 44.3509L39.6235 44.4969L39.7852 44.3366L39.6091 44.159ZM41.0258 42.7544L40.8498 42.5768L40.8498 42.5769L41.0258 42.7544ZM41.027 42.7532L41.203 42.9308L41.203 42.9307L41.027 42.7532ZM43.6235 40.178L43.7996 40.3554L43.9594 40.1968L43.8183 40.0213L43.6235 40.178ZM42.9224 39.2986L42.7266 39.4541L42.9224 39.2986ZM41.3913 37.4059L41.5828 37.2451L41.5827 37.2451L41.3913 37.4059ZM44.1357 29.3383L44.1849 29.5834L44.185 29.5833L44.1357 29.3383ZM47.1517 28.9657L47.173 29.2148L47.1517 28.9657ZM47.8223 28.9072L47.7997 28.6582L47.7996 28.6582L47.8223 28.9072ZM48.3223 28.3772L48.0723 28.3799V28.3801L48.3223 28.3772ZM48.3124 25.1187L48.0624 25.1185V25.1185L48.3124 25.1187ZM48.3123 23.4895H48.0623V23.49L48.3123 23.4895ZM48.2803 23.2378L48.526 23.1914L48.5246 23.1842L48.5228 23.1771L48.2803 23.2378ZM48.2803 23.2377L48.0349 23.2868L48.0377 23.2983L48.2803 23.2377ZM48.2802 23.2375L48.0346 23.2839L48.0351 23.2865L48.2802 23.2375ZM48.2578 23.1095L48.5051 23.0727L48.4764 22.8799L48.2824 22.8607L48.2578 23.1095ZM47.1533 22.9967L47.1274 23.2454L47.1533 22.9967ZM44.8057 22.7717L44.8256 22.5225L44.8254 22.5225L44.8057 22.7717ZM40.258 16.8441L40.0123 16.7981L40.0123 16.7981L40.258 16.8441ZM41.7869 14.0019L41.9778 14.1633L41.9779 14.1632L41.7869 14.0019ZM43.0732 12.4332L43.2677 12.5903V12.5903L43.0732 12.4332ZM43.5846 11.802L43.7784 11.9599L43.9211 11.7847L43.7612 11.6251L43.5846 11.802ZM43.297 11.5148L43.4736 11.3379L43.4735 11.3378L43.297 11.5148ZM43.2931 11.511L43.1165 11.6879L43.1165 11.688L43.2931 11.511ZM39.588 7.81096L39.7647 7.63411L39.6052 7.47468L39.4302 7.61705L39.588 7.81096ZM38.7854 8.46513L38.6274 8.2714V8.2714L38.7854 8.46513ZM36.9559 9.95202L37.1128 10.1466L37.1129 10.1466L36.9559 9.95202ZM31.6593 10.7398L31.7599 10.5109L31.7599 10.5109L31.6593 10.7398ZM28.6072 6.26988L28.8565 6.25132L28.8565 6.25116L28.6072 6.26988ZM28.3845 4.06392L28.136 4.09132L28.1361 4.09221L28.3845 4.06392ZM28.3844 4.06345L28.6329 4.03605L28.6328 4.03517L28.3844 4.06345ZM28.2694 3.02773L28.518 3.00152L28.4944 2.77773H28.2694V3.02773ZM22.6706 3.02773V2.77773H22.447L22.4222 2.99995L22.6706 3.02773ZM22.5819 3.8078L22.3335 3.7793L22.3335 3.7793L22.5819 3.8078ZM22.384 5.61879L22.6328 5.64326V5.64325L22.384 5.61879ZM21.3551 9.07649L21.556 9.22524L21.5561 9.22517L21.3551 9.07649ZM14.233 10.1176L14.0818 10.3167L14.0818 10.3167L14.233 10.1176ZM12.1931 8.48795L12.3516 8.29457L12.3486 8.29217L12.1931 8.48795ZM12.193 8.48791L12.0319 8.67922L12.0376 8.68369L12.193 8.48791ZM12.193 8.48786L12.354 8.29662L12.3514 8.2945L12.193 8.48786ZM11.3586 7.80763L11.5156 7.61303L11.3412 7.4724L11.1824 7.63034L11.3586 7.80763ZM7.34985 11.7953L7.17352 11.6181L7.01336 11.7774L7.15574 11.9529L7.34985 11.7953ZM8.09035 12.6944L7.89795 12.854L7.89795 12.854L8.09035 12.6944ZM9.75202 14.7675L9.95226 14.6178L9.9522 14.6177L9.75202 14.7675ZM7.02541 22.6084L7.08908 22.8502L7.08915 22.8501L7.02541 22.6084ZM5.61261 22.8306L5.63903 23.0792H5.63903L5.61261 22.8306ZM5.16323 22.8806L5.19315 23.1288L5.19337 23.1288L5.16323 22.8806ZM3.29287 23.0901L3.26609 22.8415L3.26599 22.8416L3.29287 23.0901ZM3.29155 23.0903L3.31833 23.3388L3.31843 23.3388L3.29155 23.0903ZM2.52995 23.1728L2.50266 22.9243L2.27995 22.9488V23.1728H2.52995ZM2.52995 28.8027H2.27995V29.0091L2.48255 29.0482L2.52995 28.8027ZM2.67682 28.8331L2.62435 29.0776L2.62745 29.0782L2.67682 28.8331ZM2.67701 28.8332L2.62764 29.0783L2.63229 29.0791L2.67701 28.8332ZM2.67705 28.8332L2.72951 28.5886L2.72177 28.5872L2.67705 28.8332ZM2.9755 28.886L3.0014 28.6374L3.00056 28.6373L2.9755 28.886ZM4.1181 28.9993L4.14404 28.7507L4.14215 28.7505L4.1181 28.9993ZM4.11826 28.9994L4.09231 29.248L4.09421 29.2482L4.11826 28.9994ZM6.17543 29.2149L6.14538 29.4631L6.14544 29.4631L6.17543 29.2149ZM10.2831 32.256L10.052 32.3513L10.052 32.3514L10.2831 32.256ZM9.52647 37.3636L9.72337 37.5177L9.72337 37.5177L9.52647 37.3636ZM7.97837 39.3116L8.17257 39.469L8.17349 39.4679L7.97837 39.3116ZM7.97805 39.312L7.78385 39.1546L7.78293 39.1557L7.97805 39.312ZM7.31207 40.1447L7.1166 39.9888L6.97757 40.1632L7.135 40.3212L7.31207 40.1447ZM17.5351 32.9256L17.3465 33.0897L17.6083 33.3906L17.765 33.0238L17.5351 32.9256ZM21.7323 28.6446L21.6252 28.4187L21.6251 28.4187L21.7323 28.6446ZM22.1707 28.4511L22.2686 28.6811L22.1707 28.4511ZM22.3962 28.3543L22.4961 28.5835L22.876 28.4178L22.5523 28.159L22.3962 28.3543ZM22.2776 28.2608L22.1235 28.4577L22.1235 28.4577L22.2776 28.2608ZM22.083 28.1036L21.9192 28.2925L21.9196 28.2928L22.083 28.1036ZM20.3982 23.7085L20.6448 23.7492L20.6448 23.7491L20.3982 23.7085ZM23.7649 19.8504L23.682 19.6145L23.6819 19.6146L23.7649 19.8504ZM24.6387 19.639L24.592 19.3934H24.592L24.6387 19.639ZM25.0507 19.5562V19.3062H25.0231L24.9962 19.3122L25.0507 19.5562ZM25.8399 19.5562L25.9105 19.3163L25.8759 19.3062H25.8399V19.5562ZM25.8897 19.5725L25.8078 19.8087L25.8078 19.8088L25.8897 19.5725ZM26.0017 19.6016L25.9792 19.8506L25.9795 19.8507L26.0017 19.6016ZM27.6545 20.0477L27.552 20.2757L27.5521 20.2758L27.6545 20.0477ZM28.6922 28.197L28.5362 28.0017L28.5356 28.0022L28.6922 28.197ZM28.5588 28.3099L28.7224 28.4989L28.7224 28.4989L28.5588 28.3099ZM28.4999 28.3607L28.337 28.171L28.0297 28.4349L28.4033 28.5913L28.4999 28.3607ZM28.6143 28.4085L28.5182 28.6393H28.5182L28.6143 28.4085ZM28.8436 28.5051L28.7444 28.7346L28.7447 28.7347L28.8436 28.5051ZM33.39 33.0118L33.1585 33.1063L33.3102 33.4776L33.5768 33.1779L33.39 33.0118ZM32.2265 34.1346L32.3859 34.3272L32.5003 34.2325L32.4719 34.0868L32.2265 34.1346ZM32.1754 33.9431L31.9384 34.0227L31.9384 34.0228L32.1754 33.9431ZM30.819 31.6447L30.9991 31.4713L30.9991 31.4713L30.819 31.6447ZM23.4566 29.593L23.5208 29.8346L23.5209 29.8346L23.4566 29.593ZM18.6828 34.058L18.446 33.9779L18.3915 34.1389L18.5213 34.2488L18.6828 34.058ZM25.4532 27.8791L25.4031 27.6342L25.329 27.6493L25.2758 27.703L25.4532 27.8791ZM25.8586 27.8052L25.9007 28.0517L25.8586 27.8052ZM25.4527 27.8796L25.4391 28.1292L25.5512 28.1353L25.6302 28.0557L25.4527 27.8796ZM22.5156 26.45L22.7109 26.2939L22.7109 26.2939L22.5156 26.45ZM22.8337 22.0687L22.6617 21.8873L22.6617 21.8873L22.8337 22.0687ZM28.0456 22.0578L27.8741 22.2397L27.8741 22.2398L28.0456 22.0578ZM26.7193 27.613L26.6403 27.3759L26.6403 27.3759L26.7193 27.613ZM21.6118 51.2489H29.2782V50.7489H21.6118V51.2489ZM20.4069 49.7535C20.4343 50.1113 20.5272 50.4291 20.7181 50.6883C20.9108 50.9499 21.1865 51.1292 21.538 51.2377L21.6855 50.76C21.4148 50.6764 21.2378 50.5507 21.1207 50.3918C21.0019 50.2304 20.9282 50.012 20.9055 49.7154L20.4069 49.7535ZM20.2179 47.7685C20.2876 48.4325 20.3568 49.0924 20.4069 49.7534L20.9055 49.7156C20.8548 49.0462 20.7847 48.3792 20.7152 47.7163L20.2179 47.7685ZM20.2176 47.7655L20.2176 47.7657L20.7154 47.719L20.7154 47.7189L20.2176 47.7655ZM20.2178 47.767L20.2178 47.7671L20.7153 47.7173L20.7153 47.7173L20.2178 47.767ZM20.037 45.891C20.0868 46.5194 20.1525 47.1457 20.2179 47.7682L20.7152 47.716C20.6497 47.0924 20.5847 46.4725 20.5354 45.8515L20.037 45.891ZM18.3977 43.2666C19.5066 43.7421 19.9412 44.6727 20.037 45.8908L20.5355 45.8516C20.4313 44.5276 19.9369 43.3826 18.5948 42.8071L18.3977 43.2666ZM15.3668 43.7988C15.84 43.3931 16.3235 43.1456 16.819 43.0547C17.313 42.9641 17.8366 43.0258 18.3977 43.2666L18.5949 42.8071C17.9548 42.5324 17.3313 42.4524 16.7288 42.5629C16.128 42.6731 15.566 42.9694 15.0414 43.4193L15.3668 43.7988ZM13.0042 45.737C13.7964 45.1012 14.5921 44.4626 15.3668 43.7989L15.0415 43.4192C14.2739 44.0768 13.4844 44.7104 12.6913 45.347L13.0042 45.737ZM13.0063 45.7353L13.0065 45.7351L12.689 45.3489L12.6888 45.349L13.0063 45.7353ZM12.1803 46.4C12.4541 46.1785 12.7289 45.958 13.004 45.7371L12.6911 45.3472C12.416 45.568 12.1405 45.7891 11.8658 46.0113L12.1803 46.4ZM10.0732 46.2981C10.4072 46.6316 10.7277 46.8601 11.0983 46.8777C11.468 46.8953 11.8114 46.6993 12.1806 46.3998L11.8656 46.0115C11.5115 46.2987 11.2948 46.3865 11.1221 46.3783C10.9501 46.3701 10.7457 46.2631 10.4264 45.9443L10.0732 46.2981ZM5.24305 41.4714C6.85199 43.0814 8.46203 44.6904 10.0732 46.2982L10.4264 45.9443C8.81538 44.3366 7.2055 42.7278 5.59673 41.1179L5.24305 41.4714ZM5.10388 39.3084C4.80921 39.6807 4.6276 40.0368 4.65252 40.4175C4.67734 40.7969 4.90287 41.1312 5.24311 41.4714L5.59667 41.1179C5.28137 40.8026 5.16413 40.5786 5.15145 40.3849C5.13887 40.1926 5.22504 39.9609 5.49591 39.6188L5.10388 39.3084ZM6.00765 38.1823C5.70572 38.5558 5.40276 38.9305 5.1038 39.3085L5.49598 39.6187C5.793 39.2431 6.09426 38.8705 6.39647 38.4967L6.00765 38.1823ZM6.01397 38.1748L6.01391 38.1749L6.3902 38.5041L6.39026 38.504L6.01397 38.1748ZM7.91334 35.7431C7.30797 36.5739 6.66026 37.3751 6.00771 38.1822L6.39653 38.4966C7.04776 37.6911 7.70345 36.8802 8.31743 36.0376L7.91334 35.7431ZM6.17552 31.5663C8.1213 31.872 9.07439 34.1511 7.9134 35.743L8.31738 36.0376C9.70077 34.1408 8.56501 31.4356 6.25312 31.0724L6.17552 31.5663ZM2.52948 31.0916C3.75066 31.2344 4.96714 31.3767 6.17556 31.5663L6.25307 31.0723C5.03333 30.881 3.80709 30.7376 2.58755 30.595L2.52948 31.0916ZM1.89842 31.0176C2.10879 31.0425 2.31921 31.0671 2.52948 31.0916L2.58755 30.595C2.37722 30.5704 2.1671 30.5459 1.95707 30.5211L1.89842 31.0176ZM0.273814 30.1058C0.625031 30.8518 1.32192 30.9499 1.89859 31.0176L1.9569 30.521C1.36027 30.451 0.948289 30.3646 0.726186 29.8929L0.273814 30.1058ZM0.25 21.8884V29.9994H0.75V21.8884H0.25ZM1.57918 20.9252C1.28869 20.9533 1.03302 21.0347 0.812301 21.1791C0.591601 21.3235 0.418997 21.5222 0.282046 21.766L0.717954 22.0109C0.82322 21.8235 0.944498 21.6901 1.08601 21.5975C1.2275 21.505 1.40238 21.4447 1.62744 21.4228L1.57918 20.9252ZM3.66608 20.6923C2.96871 20.775 2.27431 20.8573 1.57902 20.9252L1.62759 21.4228C2.32889 21.3544 3.02844 21.2714 3.72495 21.1888L3.66608 20.6923ZM3.66539 20.6924L3.66516 20.6924L3.72587 21.1887L3.7261 21.1887L3.66539 20.6924ZM3.66684 20.6922L3.66675 20.6922L3.72475 21.1889L3.72484 21.1889L3.66684 20.6922ZM5.87728 20.4474C5.13792 20.5178 4.40052 20.6052 3.66641 20.6923L3.72528 21.1888C4.46034 21.1016 5.19203 21.0149 5.9247 20.9451L5.87728 20.4474ZM8.13988 18.9208C7.93465 19.4175 7.63555 19.7691 7.26245 20.0111C6.88662 20.2547 6.42245 20.3956 5.87736 20.4473L5.92462 20.9451C6.52617 20.888 7.07365 20.7294 7.53447 20.4306C7.99801 20.13 8.36056 19.6961 8.60199 19.1117L8.13988 18.9208ZM7.74113 15.9495C8.12164 16.4125 8.32699 16.8898 8.38697 17.3774C8.4471 17.8662 8.36295 18.3812 8.1399 18.9208L8.60197 19.1118C8.85113 18.5091 8.95587 17.9069 8.88323 17.3163C8.81042 16.7245 8.56135 16.1601 8.12743 15.6321L7.74113 15.9495ZM5.91381 13.6925C6.51925 14.4465 7.12569 15.2016 7.74124 15.9496L8.12732 15.6319C7.51399 14.8866 6.90942 14.1338 6.30366 13.3794L5.91381 13.6925ZM5.91324 13.6918L5.91352 13.6922L6.30395 13.3798L6.30367 13.3795L5.91324 13.6918ZM5.08869 12.6668C5.36412 13.008 5.63872 13.35 5.91353 13.6922L6.30338 13.3791C6.02864 13.037 5.75365 12.6946 5.47777 12.3527L5.08869 12.6668ZM5.20963 10.562C4.87238 10.8999 4.64095 11.2204 4.61989 11.5891C4.59879 11.9587 4.79329 12.2999 5.08851 12.6665L5.47794 12.3529C5.19428 12.0007 5.10935 11.7881 5.11908 11.6176C5.12886 11.4463 5.23853 11.2408 5.56348 10.9153L5.20963 10.562ZM10.0787 5.69404C8.45426 7.3152 6.83083 8.93751 5.2096 10.5621L5.56352 10.9153C7.18443 9.29102 8.8076 7.66896 10.4319 6.04796L10.0787 5.69404ZM12.1586 5.58107C11.8029 5.30166 11.4547 5.13349 11.087 5.15346C10.7185 5.17349 10.3944 5.37895 10.0787 5.69406L10.432 6.04794C10.7118 5.76862 10.9255 5.66298 11.1142 5.65273C11.3037 5.64243 11.5322 5.72481 11.8498 5.97427L12.1586 5.58107ZM13.4153 6.57977C12.9981 6.24617 12.5799 5.91172 12.1585 5.58102L11.8498 5.97433C12.2691 6.3034 12.6856 6.63644 13.1031 6.97028L13.4153 6.57977ZM13.4163 6.58057L13.4163 6.58054L13.1021 6.96951L13.1022 6.96954L13.4163 6.58057ZM15.7298 8.39212C14.9481 7.80532 14.1835 7.19401 13.4154 6.5798L13.1031 6.97031C13.8703 7.58372 14.6408 8.19984 15.4296 8.79199L15.7298 8.39212ZM19.9362 6.71705C19.6193 8.64308 17.2935 9.56722 15.7299 8.39219L15.4295 8.79191C17.2902 10.1902 20.051 9.09879 20.4296 6.79824L19.9362 6.71705ZM20.2034 4.54793C20.128 5.27986 20.0536 6.00268 19.9362 6.71712L20.4296 6.79817C20.5498 6.06638 20.6257 5.32853 20.7008 4.59913L20.2034 4.54793ZM20.3806 2.98235C20.3108 3.50462 20.2568 4.02857 20.2034 4.54793L20.7008 4.59913C20.7544 4.0785 20.8075 3.56213 20.8762 3.04867L20.3806 2.98235ZM20.4184 2.55633C20.4083 2.70693 20.3987 2.84734 20.3806 2.9824L20.8762 3.04863C20.8968 2.89457 20.9073 2.73763 20.9173 2.59003L20.4184 2.55633ZM21.2613 0.784077C20.4953 1.23112 20.4577 1.97539 20.4184 2.55633L20.9173 2.59003C20.9587 1.97703 21.0027 1.51389 21.5133 1.21592L21.2613 0.784077ZM29.6094 0.75H21.3873V1.25H29.6094V0.75ZM30.0402 1.16487C29.9561 1.05735 29.8812 0.961294 29.8201 0.865471L29.3986 1.13453C29.475 1.25412 29.5653 1.36927 29.6464 1.47294L30.0402 1.16487ZM30.4865 1.98908C30.4367 1.66112 30.2071 1.37819 30.0402 1.16487L29.6464 1.47294C29.8376 1.71727 29.966 1.89192 29.9922 2.06421L30.4865 1.98908ZM30.8902 5.39843C30.7763 4.26444 30.6617 3.12258 30.4864 1.98847L29.9923 2.06482C30.1651 3.18359 30.2786 4.31219 30.3927 5.4484L30.8902 5.39843ZM30.9702 6.18752C30.9431 5.92475 30.9167 5.6618 30.8902 5.39843L30.3927 5.4484C30.4191 5.71165 30.4456 5.97531 30.4729 6.23891L30.9702 6.18752ZM32.7081 8.767C31.605 8.3051 31.0948 7.3959 30.9702 6.18759L30.4729 6.23885C30.6106 7.57492 31.1981 8.67679 32.5149 9.2282L32.7081 8.767ZM35.6957 8.18011C34.7739 8.94936 33.7934 9.22074 32.7079 8.76695L32.5151 9.22826C33.8162 9.77221 34.9913 9.41917 36.0161 8.56401L35.6957 8.18011ZM37.7836 6.48048C37.0856 7.04194 36.3856 7.60492 35.6958 8.18004L36.016 8.56408C36.7019 7.99224 37.3984 7.43201 38.097 6.87009L37.7836 6.48048ZM37.7851 6.47929L37.7846 6.47966L38.0959 6.87091L38.0964 6.87053L37.7851 6.47929ZM38.7595 5.69347C38.4352 5.95636 38.1098 6.21807 37.7841 6.48011L38.0974 6.86971C38.4231 6.60777 38.7492 6.34547 39.0744 6.08187L38.7595 5.69347ZM40.9946 5.82298C40.6226 5.45153 40.2882 5.19246 39.9032 5.17005C39.5166 5.14754 39.1602 5.36814 38.7593 5.69358L39.0745 6.08176C39.477 5.75499 39.6978 5.65893 39.8742 5.6692C40.0522 5.67957 40.2667 5.80271 40.6413 6.1768L40.9946 5.82298ZM44.7622 9.59091C43.5071 8.33473 42.2516 7.07816 40.9946 5.82299L40.6413 6.17679C41.8981 7.43173 43.1534 8.6881 44.4085 9.94431L44.7622 9.59091ZM44.7649 9.59358L44.762 9.59074L44.4087 9.94447L44.4115 9.94731L44.7649 9.59358ZM45.707 10.5364L44.765 9.59374L44.4113 9.94715L45.3533 10.8898L45.707 10.5364ZM45.8271 12.8287C46.1561 12.4197 46.3688 12.0488 46.3484 11.6518C46.328 11.2544 46.078 10.908 45.707 10.5365L45.3532 10.8898C45.7133 11.2504 45.8389 11.4802 45.849 11.6775C45.8592 11.8752 45.7574 12.1176 45.4375 12.5153L45.8271 12.8287ZM44.9634 13.8862C45.2519 13.5355 45.5414 13.1837 45.8271 12.8287L45.4376 12.5152C45.1539 12.8677 44.8661 13.2175 44.5773 13.5685L44.9634 13.8862ZM44.963 13.8866L44.9633 13.8863L44.5773 13.5684L44.577 13.5688L44.963 13.8866ZM43.0925 16.2436C43.6853 15.4395 44.3217 14.666 44.963 13.8866L44.5769 13.5689C43.937 14.3466 43.292 15.1303 42.6901 15.9469L43.0925 16.2436ZM44.8081 20.428C42.8671 20.13 41.9191 17.8331 43.0924 16.2437L42.6901 15.9467C41.2946 17.8372 42.4177 20.5669 44.7322 20.9222L44.8081 20.428ZM49.2519 20.9584C47.7651 20.8209 46.2804 20.6537 44.808 20.428L44.7323 20.9222C46.2176 21.1499 47.7128 21.3182 49.2059 21.4563L49.2519 20.9584ZM50.7252 21.8958C50.5813 21.5802 50.3785 21.3544 50.1176 21.203C49.8619 21.0547 49.5667 20.9873 49.2518 20.9584L49.206 21.4563C49.4833 21.4818 49.6982 21.5378 49.8666 21.6355C50.0299 21.7302 50.1654 21.8733 50.2703 22.1033L50.7252 21.8958ZM50.7478 29.9994V21.9995H50.2478V29.9994H50.7478ZM49.431 31.126C49.7667 31.0947 50.0364 30.9756 50.2525 30.7863C50.4644 30.6007 50.6122 30.3588 50.7264 30.1004L50.2691 29.8983C50.1712 30.1199 50.0601 30.2902 49.9231 30.4102C49.7903 30.5264 49.6211 30.6061 49.3846 30.6282L49.431 31.126ZM47.4831 31.3242C48.1335 31.2554 48.7822 31.1868 49.4311 31.126L49.3845 30.6282C48.7321 30.6893 48.0804 30.7583 47.4306 30.827L47.4831 31.3242ZM45.1288 31.5595C45.9151 31.49 46.7003 31.407 47.4831 31.3242L47.4306 30.827C46.647 30.9098 45.8661 30.9924 45.0848 31.0614L45.1288 31.5595ZM42.7492 33.2026C43.1827 32.1823 43.9923 31.6602 45.1289 31.5595L45.0847 31.0614C43.7902 31.1762 42.8043 31.7941 42.289 33.0071L42.7492 33.2026ZM43.2296 36.0976C42.8519 35.6465 42.6248 35.1818 42.5437 34.7065C42.4628 34.2323 42.5245 33.7316 42.7492 33.2026L42.289 33.0071C42.0314 33.6136 41.952 34.2112 42.0508 34.7906C42.1495 35.3689 42.4229 35.913 42.8463 36.4186L43.2296 36.0976ZM45.2044 38.5079C44.5516 37.7021 43.8976 36.8946 43.2296 36.0975L42.8463 36.4187C43.5112 37.2121 44.1627 38.0162 44.8159 38.8227L45.2044 38.5079ZM45.204 38.5074L45.2037 38.507L44.8167 38.8236L44.817 38.824L45.204 38.5074ZM45.8652 39.3225C45.6447 39.0514 45.4248 38.78 45.2048 38.5083L44.8162 38.823C45.0362 39.0946 45.2565 39.3665 45.4773 39.638L45.8652 39.3225ZM45.7592 41.5146C46.114 41.1593 46.3589 40.8294 46.3769 40.4476C46.3949 40.0666 46.183 39.7131 45.8651 39.3225L45.4773 39.6381C45.7905 40.0229 45.8859 40.2461 45.8775 40.424C45.8691 40.6011 45.754 40.8122 45.4054 41.1614L45.7592 41.5146ZM41.0114 46.2636C42.5947 44.6814 44.1781 43.0991 45.7593 41.5146L45.4054 41.1614C43.8244 42.7457 42.2413 44.3277 40.6579 45.9099L41.0114 46.2636ZM38.7267 46.3827C39.1342 46.7152 39.5012 46.9342 39.8967 46.9138C40.2919 46.8934 40.6363 46.6381 41.0113 46.2637L40.658 45.9099C40.2886 46.2787 40.0624 46.4046 39.871 46.4145C39.6799 46.4243 39.444 46.3227 39.0428 45.9953L38.7267 46.3827ZM37.7097 45.5475C38.0479 45.8261 38.3865 46.1051 38.7266 46.3827L39.0428 45.9953C38.7037 45.7186 38.3659 45.4403 38.0277 45.1616L37.7097 45.5475ZM37.7083 45.5463L37.7086 45.5466L38.0287 45.1625L38.0284 45.1622L37.7083 45.5463ZM37.7121 45.5495L37.7122 45.5495L38.0245 45.1591L38.0245 45.159L37.7121 45.5495ZM35.3739 43.6547C36.1615 44.272 36.934 44.9084 37.7093 45.5472L38.0273 45.1613C37.2527 44.5232 36.4756 43.8829 35.6823 43.2612L35.3739 43.6547ZM31.0672 45.3316C31.3963 43.3202 33.7728 42.4003 35.3739 43.6547L35.6823 43.2612C33.7835 41.7734 30.9646 42.8623 30.5737 45.2509L31.0672 45.3316ZM30.52 49.5491C30.679 48.1349 30.8383 46.7267 31.0671 45.3317L30.5737 45.2508C30.3426 46.6602 30.1819 48.0808 30.0231 49.4932L30.52 49.5491ZM29.3394 51.2418C29.7871 51.1246 30.0741 50.8837 30.2517 50.5629C30.4209 50.257 30.4814 49.8941 30.52 49.549L30.0231 49.4933C29.9851 49.8327 29.9316 50.1086 29.8142 50.3208C29.7051 50.5179 29.5327 50.6743 29.2127 50.7582L29.3394 51.2418ZM29.1662 50.7754L29.164 50.7765L29.3881 51.2235L29.3903 51.2224L29.1662 50.7754ZM12.0377 43.2336C11.7381 43.472 11.438 43.7107 11.1396 43.951L11.4532 44.3404C11.7503 44.1012 12.0492 43.8634 12.349 43.6248L12.0377 43.2336ZM13.9787 41.66C13.3428 42.1952 12.6913 42.7135 12.0377 43.2336L12.349 43.6248C13.0018 43.1055 13.6586 42.5829 14.3007 42.0426L13.9787 41.66ZM22.4096 44.7423C22.1366 43.0602 20.8812 41.5779 19.2794 40.8703C17.6665 40.1578 15.6862 40.2236 13.9788 41.66L14.3006 42.0426C15.8475 40.7413 17.6211 40.6843 19.0773 41.3276C20.5446 41.9758 21.6735 43.3279 21.9161 44.8224L22.4096 44.7423ZM22.8405 48.3346C22.7225 47.1403 22.6036 45.936 22.4096 44.7423L21.9161 44.8225C22.1071 45.9981 22.2247 47.1868 22.3429 48.3838L22.8405 48.3346ZM22.8398 48.3283L22.8398 48.3282L22.3436 48.3902L22.3437 48.3903L22.8398 48.3283ZM22.8461 48.391L22.8405 48.3347L22.3429 48.3839L22.3485 48.4402L22.8461 48.391ZM23.1222 48.6745C22.9469 48.6765 22.9129 48.6419 22.9077 48.6365C22.8932 48.6213 22.8636 48.5714 22.8461 48.3915L22.3485 48.4397C22.3666 48.6264 22.4041 48.8332 22.5463 48.982C22.6977 49.1404 22.9099 49.1769 23.1279 49.1745L23.1222 48.6745ZM27.9046 48.6745C26.3105 48.6556 24.7163 48.6545 23.1219 48.6745L23.1282 49.1745C24.7182 49.1545 26.3083 49.1556 27.8986 49.1745L27.9046 48.6745ZM28.1469 48.4207C28.1334 48.5845 28.1063 48.6291 28.0952 48.6411C28.0937 48.6427 28.066 48.6764 27.9046 48.6745L27.8986 49.1745C28.1105 49.177 28.3162 49.138 28.4617 48.9812C28.5974 48.8349 28.6309 48.6356 28.6452 48.4617L28.1469 48.4207ZM28.4619 45.2123C28.3475 46.279 28.2349 47.3484 28.1469 48.4207L28.6452 48.4616C28.7327 47.3962 28.8446 46.3323 28.9591 45.2657L28.4619 45.2123ZM31.728 40.9028C29.8176 41.6733 28.6841 43.1276 28.4619 45.2125L28.9591 45.2655C29.1613 43.3683 30.1722 42.0694 31.915 41.3665L31.728 40.9028ZM37.1195 41.7493C35.495 40.3762 33.6553 40.1261 31.7281 40.9028L31.915 41.3665C33.6766 40.6566 35.319 40.8821 36.7967 42.1311L37.1195 41.7493ZM39.0746 43.3872C38.4387 42.8567 37.7769 42.3047 37.1194 41.7492L36.7967 42.1312C37.4556 42.6878 38.1186 43.2408 38.7543 43.7712L39.0746 43.3872ZM39.0757 43.3882L39.0744 43.387L38.7546 43.7714L38.756 43.7725L39.0757 43.3882ZM39.7695 43.9672C39.5429 43.7779 39.3112 43.5846 39.076 43.3884L38.7557 43.7723C38.991 43.9686 39.2225 44.1617 39.4488 44.3509L39.7695 43.9672ZM40.8498 42.5769L39.4331 43.9815L39.7852 44.3366L41.2018 42.9319L40.8498 42.5769ZM40.8511 42.5756L40.8498 42.5768L41.2017 42.932L41.203 42.9308L40.8511 42.5756ZM43.4474 40.0006C42.5759 40.8656 41.715 41.719 40.851 42.5757L41.203 42.9307C42.067 42.0741 42.928 41.2206 43.7996 40.3554L43.4474 40.0006ZM42.7266 39.4541C42.9617 39.7503 43.1956 40.0449 43.4287 40.3347L43.8183 40.0213C43.5864 39.733 43.3535 39.4396 43.1182 39.1432L42.7266 39.4541ZM41.1998 37.5666C41.7221 38.1887 42.2273 38.8251 42.7266 39.4541L43.1182 39.1432C42.6196 38.5151 42.1101 37.8734 41.5828 37.2451L41.1998 37.5666ZM44.0865 29.0931C42.4106 29.4296 41.0002 30.724 40.3516 32.335C39.6995 33.9548 39.8104 35.9125 41.1999 37.5667L41.5827 37.2451C40.3245 35.7471 40.2249 33.9887 40.8155 32.5217C41.4096 31.0458 42.6953 29.8824 44.1849 29.5834L44.0865 29.0931ZM47.1304 28.7167C46.1212 28.803 45.0925 28.8907 44.0864 29.0932L44.185 29.5833C45.1587 29.3874 46.1589 29.3016 47.173 29.2148L47.1304 28.7167ZM47.7996 28.6582C47.5772 28.6784 47.3543 28.6975 47.1304 28.7167L47.173 29.2148C47.3966 29.1957 47.621 29.1765 47.845 29.1561L47.7996 28.6582ZM48.0723 28.3801C48.0743 28.5563 48.0428 28.5925 48.037 28.5985C48.0266 28.6092 47.9826 28.6416 47.7997 28.6582L47.8448 29.1561C48.0419 29.1383 48.2502 29.0968 48.3958 28.9467C48.5462 28.7918 48.5746 28.5803 48.5723 28.3743L48.0723 28.3801ZM48.0624 25.1185C48.0614 26.2045 48.0604 27.2923 48.0723 28.3799L48.5723 28.3744C48.5604 27.2903 48.5614 26.2054 48.5624 25.119L48.0624 25.1185ZM48.0623 23.49C48.0634 24.0326 48.0629 24.5753 48.0624 25.1185L48.5624 25.119C48.5629 24.5759 48.5634 24.0324 48.5623 23.489L48.0623 23.49ZM48.0346 23.2841C48.0518 23.3752 48.0623 23.4346 48.0623 23.4895H48.5623C48.5623 23.3796 48.5414 23.2733 48.526 23.1914L48.0346 23.2841ZM48.0377 23.2983L48.0378 23.2984L48.5228 23.1771L48.5228 23.1771L48.0377 23.2983ZM48.0351 23.2865L48.0351 23.2867L48.5254 23.1887L48.5254 23.1885L48.0351 23.2865ZM48.0105 23.1463C48.0179 23.1956 48.0268 23.2428 48.0346 23.2838L48.5259 23.1911C48.5179 23.1487 48.5108 23.1109 48.5051 23.0727L48.0105 23.1463ZM47.1274 23.2454C47.4932 23.2833 47.8617 23.3216 48.2333 23.3583L48.2824 22.8607C47.9123 22.8242 47.545 22.786 47.1791 22.748L47.1274 23.2454ZM44.7858 23.0209C45.5625 23.0829 46.3386 23.1635 47.1274 23.2454L47.1791 22.748C46.3912 22.6662 45.6092 22.585 44.8256 22.5225L44.7858 23.0209ZM40.0123 16.7981C39.436 19.8787 41.6493 22.7726 44.7859 23.021L44.8254 22.5225C41.9844 22.2976 39.9822 19.6782 40.5037 16.8901L40.0123 16.7981ZM41.5959 13.8405C40.8767 14.6912 40.2344 15.6109 40.0123 16.7981L40.5037 16.8901C40.7016 15.8329 41.2748 14.9948 41.9778 14.1633L41.5959 13.8405ZM42.8788 12.2761C42.4644 12.7891 42.0354 13.32 41.5958 13.8407L41.9779 14.1632C42.4216 13.6377 42.8538 13.1026 43.2677 12.5903L42.8788 12.2761ZM43.3908 11.6441C43.2231 11.8499 43.0522 12.0615 42.8788 12.2761L43.2677 12.5903C43.4412 12.3755 43.6115 12.1648 43.7784 11.9599L43.3908 11.6441ZM43.1203 11.6917L43.408 11.9789L43.7612 11.6251L43.4736 11.3379L43.1203 11.6917ZM43.1165 11.688L43.1204 11.6918L43.4735 11.3378L43.4697 11.334L43.1165 11.688ZM39.4113 7.98781C40.6461 9.22152 41.8607 10.4341 43.1165 11.6879L43.4698 11.3341C42.2139 10.0803 40.9994 8.86773 39.7647 7.63411L39.4113 7.98781ZM38.9434 8.65886C39.2136 8.43846 39.4813 8.22011 39.7458 8.00486L39.4302 7.61705C39.1655 7.8325 38.8976 8.05103 38.6274 8.2714L38.9434 8.65886ZM37.1129 10.1466C37.729 9.64938 38.3424 9.14908 38.9434 8.65886L38.6274 8.2714C38.0262 8.76176 37.4138 9.26123 36.7989 9.75747L37.1129 10.1466ZM31.5587 10.9686C33.5455 11.842 35.4372 11.4984 37.1128 10.1466L36.7989 9.75745C35.2546 11.0033 33.5597 11.302 31.7599 10.5109L31.5587 10.9686ZM28.3578 6.28845C28.5196 8.46006 29.5569 10.0889 31.5587 10.9687L31.7599 10.5109C29.944 9.7129 29.0058 8.25739 28.8565 6.25132L28.3578 6.28845ZM28.1361 4.09221C28.22 4.82936 28.303 5.55862 28.3579 6.28861L28.8565 6.25116C28.8008 5.50999 28.7166 4.77118 28.6329 4.03563L28.1361 4.09221ZM28.1359 4.09085L28.136 4.09132L28.6329 4.03652L28.6329 4.03605L28.1359 4.09085ZM28.0208 3.05394C28.0574 3.40117 28.0968 3.74731 28.136 4.09174L28.6328 4.03517C28.5935 3.69039 28.5544 3.34632 28.518 3.00152L28.0208 3.05394ZM22.6706 3.27773H28.2694V2.77773H22.6706V3.27773ZM22.8302 3.8363C22.8599 3.57751 22.8898 3.31728 22.9191 3.05551L22.4222 2.99995C22.393 3.26089 22.3632 3.52039 22.3335 3.7793L22.8302 3.8363ZM22.6328 5.64325C22.6917 5.04344 22.7605 4.44384 22.8302 3.8363L22.3335 3.7793C22.2639 4.38616 22.1946 4.9898 22.1352 5.59432L22.6328 5.64325ZM21.5561 9.22517C22.3667 8.12935 22.5133 6.85757 22.6328 5.64326L22.1352 5.59431C22.0146 6.81995 21.8723 7.957 21.1541 8.9278L21.5561 9.22517ZM14.0818 10.3167C16.3979 12.0756 19.8335 11.5519 21.556 9.22524L21.1542 8.92773C19.5946 11.0343 16.4748 11.5061 14.3842 9.91848L14.0818 10.3167ZM12.0346 8.68131C12.6852 9.21451 13.3735 9.77859 14.0818 10.3167L14.3842 9.9185C13.6845 9.38693 13.0033 8.82869 12.3516 8.29459L12.0346 8.68131ZM12.0376 8.68369L12.0376 8.68373L12.3486 8.29217L12.3485 8.29213L12.0376 8.68369ZM12.0319 8.67909L12.032 8.67914L12.3541 8.29668L12.354 8.29664L12.0319 8.67909ZM11.2017 8.00223C11.4717 8.21997 11.7494 8.44758 12.0345 8.68122L12.3514 8.2945C12.0667 8.06111 11.7874 7.83222 11.5156 7.61303L11.2017 8.00223ZM7.52618 11.9725C8.85282 10.6526 10.1705 9.34151 11.5349 7.98491L11.1824 7.63034C9.81793 8.98702 8.50015 10.2981 7.17352 11.6181L7.52618 11.9725ZM8.28276 12.5347C8.0315 12.2319 7.78402 11.9335 7.54396 11.6378L7.15574 11.9529C7.39778 12.2511 7.64699 12.5515 7.89795 12.854L8.28276 12.5347ZM9.9522 14.6177C9.41332 13.8974 8.83891 13.2051 8.28276 12.5347L7.89795 12.854C8.45539 13.5259 9.02173 14.2087 9.55184 14.9172L9.9522 14.6177ZM7.08915 22.8501C10.6364 21.9149 12.1525 17.5616 9.95226 14.6178L9.55177 14.9171C11.5403 17.5777 10.1654 21.522 6.96167 22.3667L7.08915 22.8501ZM5.63903 23.0792C6.11187 23.0289 6.60893 22.9766 7.08908 22.8502L6.96174 22.3667C6.52456 22.4818 6.06576 22.531 5.58619 22.582L5.63903 23.0792ZM5.19337 23.1288C5.34038 23.1109 5.48853 23.0952 5.63903 23.0792L5.58619 22.582C5.43632 22.5979 5.28444 22.6141 5.13309 22.6324L5.19337 23.1288ZM3.31965 23.3387C3.94396 23.2714 4.56899 23.2041 5.19315 23.1288L5.13331 22.6324C4.51281 22.7072 3.89093 22.7742 3.26609 22.8415L3.31965 23.3387ZM3.31843 23.3388L3.31976 23.3387L3.26599 22.8416L3.26466 22.8417L3.31843 23.3388ZM2.55725 23.4213C2.811 23.3935 3.0646 23.3661 3.31833 23.3388L3.26477 22.8417C3.01113 22.869 2.75701 22.8964 2.50266 22.9243L2.55725 23.4213ZM2.77995 28.8027V23.1728H2.27995V28.8027H2.77995ZM2.72927 28.5887C2.68215 28.5786 2.63098 28.5676 2.57736 28.5572L2.48255 29.0482C2.53034 29.0574 2.57662 29.0673 2.62436 29.0776L2.72927 28.5887ZM2.72638 28.5881L2.72618 28.5881L2.62745 29.0782L2.62765 29.0783L2.72638 28.5881ZM2.72177 28.5872L2.72174 28.5872L2.63229 29.0791L2.63232 29.0791L2.72177 28.5872ZM3.00056 28.6373C2.91862 28.629 2.83525 28.6114 2.72949 28.5887L2.6246 29.0776C2.72524 29.0992 2.83608 29.1233 2.95044 29.1348L3.00056 28.6373ZM4.14215 28.7505C3.76105 28.7137 3.38101 28.6769 3.0014 28.6374L2.9496 29.1347C3.33136 29.1745 3.71325 29.2114 4.09404 29.2482L4.14215 28.7505ZM4.14421 28.7507L4.14404 28.7507L4.09215 29.248L4.09231 29.248L4.14421 28.7507ZM6.20548 28.9667C5.51751 28.8834 4.82819 28.8168 4.14231 28.7505L4.09421 29.2482C4.78109 29.3146 5.4644 29.3807 6.14538 29.4631L6.20548 28.9667ZM10.5142 32.1606C9.72919 30.2581 8.22761 29.2111 6.20542 28.9667L6.14544 29.4631C8.00316 29.6876 9.34152 30.6295 10.052 32.3513L10.5142 32.1606ZM9.72337 37.5177C10.9927 35.8952 11.3054 34.0773 10.5142 32.1606L10.052 32.3514C10.7697 34.0901 10.4958 35.7189 9.32956 37.2096L9.72337 37.5177ZM8.17349 39.4679C8.68593 38.8282 9.20835 38.176 9.72337 37.5177L9.32957 37.2096C8.81661 37.8653 8.29599 38.5152 7.78325 39.1553L8.17349 39.4679ZM8.17225 39.4694L8.17257 39.469L7.78417 39.1542L7.78385 39.1546L8.17225 39.4694ZM7.50754 40.3005C7.7267 40.0257 7.94898 39.7482 8.17317 39.4683L7.78293 39.1557C7.5588 39.4355 7.33617 39.7134 7.1166 39.9888L7.50754 40.3005ZM11.4736 43.9694C10.1218 42.6109 8.8188 41.3023 7.48914 39.9682L7.135 40.3212C8.46455 41.6552 9.76746 42.9636 11.1192 44.322L11.4736 43.9694ZM15.1951 25.9995C15.1951 20.3081 19.809 15.6942 25.5004 15.6942V15.1942C19.5328 15.1942 14.6951 20.0319 14.6951 25.9995H15.1951ZM17.7237 32.7615C16.1486 30.9516 15.1951 28.5872 15.1951 25.9995H14.6951C14.6951 28.7124 15.6952 31.1923 17.3465 33.0897L17.7237 32.7615ZM17.765 33.0238C18.5699 31.1392 19.9385 29.7731 21.8396 28.8704L21.6251 28.4187C19.6223 29.3697 18.1616 30.8223 17.3052 32.8274L17.765 33.0238ZM21.8395 28.8704C21.9764 28.8055 22.1166 28.7458 22.2686 28.6811L22.0728 28.221C21.9225 28.285 21.7728 28.3486 21.6252 28.4187L21.8395 28.8704ZM22.2686 28.6811C22.342 28.6499 22.4181 28.6175 22.4961 28.5835L22.2963 28.1251C22.2206 28.1581 22.1465 28.1897 22.0728 28.221L22.2686 28.6811ZM22.5523 28.159C22.5091 28.1245 22.4688 28.0929 22.4316 28.0639L22.1235 28.4577C22.1609 28.4869 22.1992 28.5169 22.2401 28.5495L22.5523 28.159ZM22.4316 28.0639C22.3601 28.0079 22.3017 27.9622 22.2464 27.9144L21.9196 28.2928C21.9857 28.3499 22.0539 28.4031 22.1235 28.4577L22.4316 28.0639ZM22.2468 27.9147C20.961 26.7998 20.3698 25.4168 20.6448 23.7492L20.1515 23.6678C19.8445 25.5289 20.5199 27.0792 21.9192 28.2925L22.2468 27.9147ZM20.6448 23.7491C20.9501 21.8976 22.0815 20.7083 23.848 20.0862L23.6819 19.6146C21.7669 20.289 20.4903 21.6128 20.1515 23.6678L20.6448 23.7491ZM23.8478 20.0862C24.1084 19.9947 24.3859 19.9415 24.6853 19.8846L24.592 19.3934C24.2991 19.449 23.9841 19.5084 23.682 19.6145L23.8478 20.0862ZM24.6853 19.8846C24.8225 19.8586 24.9644 19.8316 25.1053 19.8001L24.9962 19.3122C24.8645 19.3416 24.7306 19.3671 24.592 19.3934L24.6853 19.8846ZM25.0507 19.8062H25.8399V19.3062H25.0507V19.8062ZM25.7693 19.796C25.7793 19.7989 25.7902 19.8027 25.8078 19.8087L25.9715 19.3363C25.9559 19.3309 25.9337 19.3232 25.9105 19.3163L25.7693 19.796ZM25.8078 19.8088C25.8391 19.8196 25.9056 19.844 25.9792 19.8506L26.0242 19.3527C26.0255 19.3528 26.0227 19.3527 26.0131 19.35C26.0028 19.3471 25.9913 19.3431 25.9715 19.3363L25.8078 19.8088ZM25.9795 19.8507C26.5254 19.8993 27.0463 20.0485 27.552 20.2757L27.7569 19.8196C27.2082 19.5731 26.6331 19.4069 26.0239 19.3526L25.9795 19.8507ZM27.5521 20.2758C30.751 21.7115 31.2732 25.8148 28.5362 28.0017L28.8483 28.3924C31.8781 25.9715 31.2964 21.4082 27.7568 19.8196L27.5521 20.2758ZM28.5356 28.0022C28.4883 28.0402 28.4429 28.0796 28.3952 28.1209L28.7224 28.4989C28.7715 28.4564 28.8099 28.4232 28.8488 28.3919L28.5356 28.0022ZM28.3952 28.1209C28.3766 28.1369 28.3575 28.1535 28.337 28.171L28.6627 28.5504C28.684 28.5321 28.7039 28.5149 28.7224 28.4989L28.3952 28.1209ZM28.4033 28.5913C28.4442 28.6084 28.4823 28.6243 28.5182 28.6393L28.7104 28.1777C28.6744 28.1627 28.6367 28.147 28.5964 28.1301L28.4033 28.5913ZM28.5182 28.6393C28.602 28.6741 28.6736 28.7039 28.7444 28.7346L28.9429 28.2757C28.8683 28.2434 28.7935 28.2123 28.7104 28.1777L28.5182 28.6393ZM28.7447 28.7347C30.8278 29.6328 32.3238 31.0636 33.1585 33.1063L33.6214 32.9172C32.7321 30.7411 31.1333 29.22 28.9426 28.2755L28.7447 28.7347ZM35.8057 25.9995C35.8057 28.6275 34.8224 31.0252 33.2032 32.8456L33.5768 33.1779C35.2742 31.2695 36.3057 28.7546 36.3057 25.9995H35.8057ZM25.5004 15.6942C31.1919 15.6942 35.8057 20.3081 35.8057 25.9995H36.3057C36.3057 20.0319 31.468 15.1942 25.5004 15.1942V15.6942ZM32.4719 34.0868C32.4576 34.0133 32.4377 33.9388 32.4124 33.8635L31.9384 34.0228C31.9572 34.0788 31.9713 34.132 31.9811 34.1825L32.4719 34.0868ZM32.4124 33.8636C32.1131 32.9715 31.6582 32.1559 30.9991 31.4713L30.6389 31.8181C31.2385 32.4409 31.6586 33.1889 31.9384 34.0227L32.4124 33.8636ZM30.9991 31.4713C28.8866 29.2779 26.3001 28.5787 23.3924 29.3514L23.5209 29.8346C26.2547 29.1081 28.6537 29.7569 30.6389 31.8181L30.9991 31.4713ZM23.3925 29.3514C20.9618 29.9971 19.266 31.5543 18.446 33.9779L18.9197 34.1381C19.6854 31.875 21.2503 30.4378 23.5208 29.8346L23.3925 29.3514ZM25.5004 36.3048C22.9629 36.3048 20.6402 35.388 18.8444 33.8672L18.5213 34.2488C20.4039 35.8432 22.8402 36.8048 25.5004 36.8048V36.3048ZM32.0671 33.942C30.284 35.418 27.9961 36.3048 25.5004 36.3048V36.8048C28.1167 36.8048 30.5164 35.8746 32.3859 34.3272L32.0671 33.942ZM25.5004 13.1942C18.4283 13.1942 12.6951 18.9273 12.6951 25.9995H13.1951C13.1951 19.2035 18.7044 13.6942 25.5004 13.6942V13.1942ZM38.3057 25.9995C38.3057 18.9273 32.5726 13.1942 25.5004 13.1942V13.6942C32.2965 13.6942 37.8057 19.2035 37.8057 25.9995H38.3057ZM25.5004 38.8048C32.5726 38.8048 38.3057 33.0717 38.3057 25.9995H37.8057C37.8057 32.7955 32.2965 38.3048 25.5004 38.3048V38.8048ZM12.6951 25.9995C12.6951 33.0717 18.4283 38.8048 25.5004 38.8048V38.3048C18.7044 38.3048 13.1951 32.7955 13.1951 25.9995H12.6951ZM25.5034 28.124C25.6329 28.0975 25.7644 28.075 25.9007 28.0517L25.8165 27.5588C25.6815 27.5819 25.5419 27.6057 25.4031 27.6342L25.5034 28.124ZM25.6302 28.0557L25.6307 28.0552L25.2758 27.703L25.2753 27.7035L25.6302 28.0557ZM22.3202 26.606C23.1178 27.6045 24.1831 28.0607 25.4391 28.1292L25.4663 27.6299C24.3272 27.5679 23.4048 27.1627 22.7109 26.2939L22.3202 26.606ZM22.6617 21.8873C21.3261 23.154 21.1695 25.1657 22.3203 26.606L22.7109 26.2939C21.725 25.06 21.8554 23.3412 23.0057 22.2501L22.6617 21.8873ZM28.2171 21.8759C26.6742 20.4214 24.2019 20.427 22.6617 21.8873L23.0057 22.2501C24.3539 20.9719 26.5247 20.9676 27.8741 22.2397L28.2171 21.8759ZM26.7984 27.8502C29.4272 26.974 30.2057 23.7502 28.2171 21.8759L27.8741 22.2398C29.5719 23.8399 28.9309 26.6123 26.6403 27.3759L26.7984 27.8502ZM25.9007 28.0517C26.189 28.0024 26.4998 27.9498 26.7984 27.8502L26.6403 27.3759C26.384 27.4613 26.1115 27.5084 25.8165 27.5588L25.9007 28.0517Z" fill="#2166B1"/>
</svg>
